<?xml version="1.0" encoding="utf-8"?>
<!-- Generator: Adobe Illustrator 25.1.0, SVG Export Plug-In . SVG Version: 6.00 Build 0)  -->
<svg version="1.1" id="Layer_1" xmlns="http://www.w3.org/2000/svg" xmlns:xlink="http://www.w3.org/1999/xlink" x="0px" y="0px"
	 viewBox="0 0 132.03 189.08" style="enable-background:new 0 0 132.03 189.08;" xml:space="preserve">
<style type="text/css">
	.st0{fill:none;stroke:#46DB83;stroke-width:3;stroke-linecap:round;stroke-linejoin:round;}
	.st1{fill-rule:evenodd;clip-rule:evenodd;fill:#FFFFFF;filter:url(#Adobe_OpacityMaskFilter);}
	.st2{mask:url(#mask0_1_);}
	.st3{fill-rule:evenodd;clip-rule:evenodd;fill:#46DB83;}
</style>
<path class="st0" d="M95.2,184.63c11.05-6.98,20.3-16.82,26.47-28.32c11.91-22.2,11.83-49.78-0.34-71.7
	C113.29,70.12,99.44,58.5,82.72,55.6c-12.04-2.09-25.34,1.19-33.85,9.99c-20.05,20.72,0.2,45.05,25.55,39.14
	c9.36-2.18,17.73-7.81,24.11-14.99c12.72-14.33,17.36-36.26,8.67-53.2C89.72,2.46,30.94-7.93,1.5,10.55"/>
<defs>
	<filter id="Adobe_OpacityMaskFilter" filterUnits="userSpaceOnUse" x="91.07" y="163.36" width="24.02" height="25.72">
		<feColorMatrix  type="matrix" values="1 0 0 0 0  0 1 0 0 0  0 0 1 0 0  0 0 0 1 0"/>
	</filter>
</defs>
<mask maskUnits="userSpaceOnUse" x="91.07" y="163.36" width="24.02" height="25.72" id="mask0_1_">
	<path class="st1" d="M116.55,187.96l-18.99,10.21L82.8,170.73l18.99-10.21L116.55,187.96z"/>
</mask>
<g class="st2">
	<path class="st3" d="M114.47,189.08l0.62-3.84l-19.21-2.43l4.46-18.68l-3.84-0.77l-5.43,22.75L114.47,189.08z"/>
</g>
</svg>
